<svg width="140" height="12" viewBox="0 0 140 12" fill="none" xmlns="http://www.w3.org/2000/svg">
<path d="M0.198509 11V0.0909088H4.19354C4.96768 0.0909088 5.60867 0.21875 6.11648 0.474432C6.62429 0.726562 7.00426 1.06925 7.25639 1.50249C7.50852 1.93217 7.63459 2.4169 7.63459 2.95668C7.63459 3.41122 7.55114 3.79474 7.38423 4.10724C7.21733 4.41619 6.99361 4.66477 6.71307 4.85298C6.43608 5.03764 6.13068 5.17259 5.79688 5.25781V5.36435C6.15909 5.3821 6.51243 5.49929 6.85689 5.71591C7.2049 5.92898 7.49254 6.2326 7.71982 6.62678C7.94709 7.02095 8.06072 7.50036 8.06072 8.06499C8.06072 8.62251 7.92933 9.12322 7.66655 9.56712C7.40732 10.0075 7.00604 10.3572 6.46271 10.6165C5.91939 10.8722 5.22514 11 4.37997 11H0.198509ZM1.84446 9.58842H4.22017C5.00852 9.58842 5.57315 9.43572 5.91406 9.13033C6.25497 8.82493 6.42543 8.44318 6.42543 7.98509C6.42543 7.64062 6.33842 7.32457 6.16442 7.03693C5.99041 6.74929 5.74183 6.52024 5.41868 6.34979C5.09908 6.17933 4.71911 6.09411 4.27876 6.09411H1.84446V9.58842ZM1.84446 4.81037H4.04972C4.41903 4.81037 4.75107 4.73935 5.04581 4.5973C5.34411 4.45526 5.58026 4.25639 5.75426 4.00071C5.93182 3.74148 6.0206 3.43608 6.0206 3.08452C6.0206 2.63352 5.86257 2.25533 5.54652 1.94993C5.23047 1.64453 4.74574 1.49183 4.09233 1.49183H1.84446V4.81037ZM13.8548 11V2.81818H20.5292V11H18.9685V4.19247H15.4049V11H13.8548ZM26.1049 11.1651C25.3379 11.1651 24.6685 10.9893 24.0968 10.6378C23.525 10.2862 23.0811 9.79439 22.7651 9.16229C22.449 8.53018 22.291 7.79155 22.291 6.94638C22.291 6.09766 22.449 5.35547 22.7651 4.71982C23.0811 4.08416 23.525 3.59055 24.0968 3.23899C24.6685 2.88743 25.3379 2.71165 26.1049 2.71165C26.872 2.71165 27.5414 2.88743 28.1131 3.23899C28.6848 3.59055 29.1287 4.08416 29.4448 4.71982C29.7608 5.35547 29.9189 6.09766 29.9189 6.94638C29.9189 7.79155 29.7608 8.53018 29.4448 9.16229C29.1287 9.79439 28.6848 10.2862 28.1131 10.6378C27.5414 10.9893 26.872 11.1651 26.1049 11.1651ZM26.1103 9.82812C26.6074 9.82812 27.0194 9.69673 27.3461 9.43395C27.6728 9.17116 27.9142 8.82138 28.0705 8.38459C28.2303 7.9478 28.3102 7.46662 28.3102 6.94105C28.3102 6.41903 28.2303 5.93963 28.0705 5.50284C27.9142 5.0625 27.6728 4.70916 27.3461 4.44283C27.0194 4.17649 26.6074 4.04332 26.1103 4.04332C25.6096 4.04332 25.1941 4.17649 24.8638 4.44283C24.5371 4.70916 24.2939 5.0625 24.1341 5.50284C23.9778 5.93963 23.8997 6.41903 23.8997 6.94105C23.8997 7.46662 23.9778 7.9478 24.1341 8.38459C24.2939 8.82138 24.5371 9.17116 24.8638 9.43395C25.1941 9.69673 25.6096 9.82812 26.1103 9.82812ZM36.9275 2.81818V4.19247H33.268V11H31.6966V2.81818H36.9275ZM41.6762 11.1651C40.9092 11.1651 40.2398 10.9893 39.6681 10.6378C39.0963 10.2862 38.6524 9.79439 38.3364 9.16229C38.0203 8.53018 37.8623 7.79155 37.8623 6.94638C37.8623 6.09766 38.0203 5.35547 38.3364 4.71982C38.6524 4.08416 39.0963 3.59055 39.6681 3.23899C40.2398 2.88743 40.9092 2.71165 41.6762 2.71165C42.4433 2.71165 43.1127 2.88743 43.6844 3.23899C44.2561 3.59055 44.7 4.08416 45.0161 4.71982C45.3321 5.35547 45.4901 6.09766 45.4901 6.94638C45.4901 7.79155 45.3321 8.53018 45.0161 9.16229C44.7 9.79439 44.2561 10.2862 43.6844 10.6378C43.1127 10.9893 42.4433 11.1651 41.6762 11.1651ZM41.6816 9.82812C42.1787 9.82812 42.5906 9.69673 42.9173 9.43395C43.2441 9.17116 43.4855 8.82138 43.6418 8.38459C43.8016 7.9478 43.8815 7.46662 43.8815 6.94105C43.8815 6.41903 43.8016 5.93963 43.6418 5.50284C43.4855 5.0625 43.2441 4.70916 42.9173 4.44283C42.5906 4.17649 42.1787 4.04332 41.6816 4.04332C41.1808 4.04332 40.7654 4.17649 40.4351 4.44283C40.1084 4.70916 39.8651 5.0625 39.7053 5.50284C39.5491 5.93963 39.471 6.41903 39.471 6.94105C39.471 7.46662 39.5491 7.9478 39.7053 8.38459C39.8651 8.82138 40.1084 9.17116 40.4351 9.43395C40.7654 9.69673 41.1808 9.82812 41.6816 9.82812ZM52.813 6.22195V7.60156H48.3812V6.22195H52.813ZM48.8287 2.81818V11H47.2679V2.81818H48.8287ZM53.9263 2.81818V11H52.3709V2.81818H53.9263ZM59.5833 11.1651C58.7772 11.1651 58.0829 10.9929 57.5005 10.6484C56.9217 10.3004 56.4743 9.81214 56.1582 9.18359C55.8457 8.55149 55.6895 7.81108 55.6895 6.96236C55.6895 6.12429 55.8457 5.38565 56.1582 4.74645C56.4743 4.10724 56.9146 3.60831 57.4792 3.24964C58.0474 2.89098 58.7115 2.71165 59.4714 2.71165C59.9331 2.71165 60.3805 2.788 60.8137 2.9407C61.247 3.09339 61.6358 3.3331 61.9803 3.6598C62.3248 3.98651 62.5964 4.41087 62.7953 4.93288C62.9941 5.45135 63.0936 6.08168 63.0936 6.82386V7.38849H56.5897V6.19531H61.5328C61.5328 5.77628 61.4476 5.40518 61.2772 5.08203C61.1067 4.75533 60.867 4.49787 60.5581 4.30966C60.2527 4.12145 59.894 4.02734 59.4821 4.02734C59.0346 4.02734 58.644 4.13743 58.3102 4.3576C57.9799 4.57422 57.7243 4.85831 57.5431 5.20987C57.3656 5.55788 57.2768 5.93608 57.2768 6.34446V7.27663C57.2768 7.82351 57.3727 8.28871 57.5645 8.67223C57.7598 9.05575 58.0314 9.34872 58.3794 9.55114C58.7275 9.75 59.1341 9.84943 59.5993 9.84943C59.9011 9.84943 60.1763 9.80682 60.4249 9.72159C60.6735 9.63281 60.8883 9.50142 61.0694 9.32741C61.2505 9.15341 61.389 8.93857 61.4849 8.68288L62.9924 8.95455C62.8716 9.39844 62.655 9.78729 62.3425 10.1211C62.0336 10.4513 61.6447 10.7088 61.176 10.8935C60.7108 11.0746 60.1799 11.1651 59.5833 11.1651ZM68.3457 8.83736H69.9757C69.997 9.17116 70.1479 9.42862 70.4284 9.60973C70.7125 9.79084 71.0801 9.88139 71.5311 9.88139C71.9892 9.88139 72.3798 9.78374 72.7029 9.58842C73.0261 9.38956 73.1877 9.08239 73.1877 8.6669C73.1877 8.41832 73.1255 8.2017 73.0012 8.01705C72.8805 7.82884 72.7083 7.68324 72.4846 7.58026C72.2644 7.47727 72.0034 7.42578 71.7015 7.42578H70.3699V6.17401H71.7015C72.1525 6.17401 72.4899 6.07102 72.7136 5.86506C72.9373 5.65909 73.0492 5.40163 73.0492 5.09268C73.0492 4.75888 72.9284 4.49077 72.687 4.28835C72.449 4.08239 72.117 3.9794 71.6909 3.9794C71.2576 3.9794 70.8972 4.07706 70.6096 4.27237C70.3219 4.46413 70.171 4.71271 70.1568 5.01811H68.5481C68.5588 4.56001 68.6973 4.15874 68.9636 3.81428C69.2335 3.46626 69.5957 3.19638 70.0502 3.00462C70.5083 2.8093 71.0286 2.71165 71.611 2.71165C72.2182 2.71165 72.7438 2.8093 73.1877 3.00462C73.6316 3.19993 73.9743 3.46982 74.2157 3.81428C74.4608 4.15874 74.5833 4.55469 74.5833 5.00213C74.5833 5.45312 74.4483 5.82244 74.1784 6.11008C73.9121 6.39418 73.5641 6.59837 73.1344 6.72266V6.80788C73.4505 6.82919 73.731 6.92507 73.976 7.09553C74.2211 7.26598 74.4128 7.49148 74.5513 7.77202C74.6898 8.05256 74.7591 8.37038 74.7591 8.7255C74.7591 9.22621 74.6206 9.65945 74.3436 10.0252C74.0701 10.391 73.6902 10.6733 73.2037 10.8722C72.7207 11.0675 72.1685 11.1651 71.5471 11.1651C70.9434 11.1651 70.4018 11.071 69.9224 10.8828C69.4466 10.6911 69.0684 10.4212 68.7878 10.0732C68.5108 9.72514 68.3635 9.31321 68.3457 8.83736ZM78.7847 11.1811C78.2662 11.1811 77.7975 11.0852 77.3785 10.8935C76.9594 10.6982 76.6274 10.4158 76.3824 10.0465C76.1409 9.6772 76.0202 9.22443 76.0202 8.68821C76.0202 8.22656 76.1089 7.84659 76.2865 7.5483C76.464 7.25 76.7037 7.01385 77.0056 6.83984C77.3074 6.66584 77.6448 6.53445 78.0177 6.44567C78.3905 6.35689 78.7705 6.28942 79.1576 6.24325C79.6476 6.18643 80.0454 6.14027 80.3508 6.10476C80.6562 6.0657 80.8781 6.00355 81.0166 5.91832C81.1551 5.8331 81.2243 5.6946 81.2243 5.50284V5.46555C81.2243 5.00035 81.093 4.63991 80.8302 4.38423C80.5709 4.12855 80.1839 4.00071 79.6689 4.00071C79.1327 4.00071 78.7101 4.11967 78.4012 4.3576C78.0958 4.59197 77.8845 4.85298 77.7673 5.14062L76.2705 4.79972C76.4481 4.30256 76.7073 3.90128 77.0482 3.59588C77.3927 3.28693 77.7886 3.06321 78.2361 2.92472C78.6835 2.78267 79.154 2.71165 79.6476 2.71165C79.9743 2.71165 80.3206 2.75071 80.6863 2.82884C81.0557 2.90341 81.4001 3.0419 81.7197 3.24432C82.0429 3.44673 82.3074 3.73615 82.5134 4.11257C82.7194 4.48544 82.8224 4.97017 82.8224 5.56676V11H81.267V9.88139H81.203C81.1001 10.0874 80.9456 10.2898 80.7396 10.4886C80.5336 10.6875 80.2691 10.8526 79.9459 10.984C79.6228 11.1154 79.2357 11.1811 78.7847 11.1811ZM79.1309 9.9027C79.5713 9.9027 79.9477 9.8157 80.2602 9.64169C80.5763 9.46768 80.816 9.24041 80.9793 8.95987C81.1462 8.67578 81.2297 8.37216 81.2297 8.04901V6.99432C81.1729 7.05114 81.0628 7.1044 80.8994 7.15412C80.7396 7.20028 80.5567 7.24112 80.3508 7.27663C80.1448 7.30859 79.9442 7.33878 79.7488 7.36719C79.5535 7.39205 79.3902 7.41335 79.2588 7.43111C78.9498 7.47017 78.6675 7.53587 78.4118 7.6282C78.1597 7.72053 77.9573 7.85369 77.8046 8.0277C77.6555 8.19815 77.5809 8.42543 77.5809 8.70952C77.5809 9.10369 77.7265 9.40199 78.0177 9.6044C78.3089 9.80327 78.68 9.9027 79.1309 9.9027ZM89.0413 11V0.0909088H95.8435V1.50781H90.6872V4.49077H93.1269C93.9365 4.49077 94.6237 4.62216 95.1883 4.88494C95.7565 5.14773 96.1897 5.51882 96.488 5.99822C96.7899 6.47763 96.9408 7.04226 96.9408 7.69212C96.9408 8.34197 96.7899 8.91548 96.488 9.41264C96.1897 9.9098 95.7565 10.2987 95.1883 10.5792C94.6237 10.8597 93.9365 11 93.1269 11H89.0413ZM90.6872 9.61506H93.1269C93.5956 9.61506 93.9916 9.52273 94.3147 9.33807C94.6414 9.15341 94.8882 8.91371 95.0551 8.61896C95.2256 8.32422 95.3108 8.00817 95.3108 7.67081C95.3108 7.18075 95.1226 6.75994 94.7462 6.40838C94.3698 6.05327 93.83 5.87571 93.1269 5.87571H90.6872V9.61506ZM102.283 11.1651C101.477 11.1651 100.783 10.9929 100.201 10.6484C99.6219 10.3004 99.1744 9.81214 98.8584 9.18359C98.5459 8.55149 98.3896 7.81108 98.3896 6.96236C98.3896 6.12429 98.5459 5.38565 98.8584 4.74645C99.1744 4.10724 99.6148 3.60831 100.179 3.24964C100.748 2.89098 101.412 2.71165 102.172 2.71165C102.633 2.71165 103.081 2.788 103.514 2.9407C103.947 3.09339 104.336 3.3331 104.68 3.6598C105.025 3.98651 105.297 4.41087 105.495 4.93288C105.694 5.45135 105.794 6.08168 105.794 6.82386V7.38849H99.2899V6.19531H104.233C104.233 5.77628 104.148 5.40518 103.977 5.08203C103.807 4.75533 103.567 4.49787 103.258 4.30966C102.953 4.12145 102.594 4.02734 102.182 4.02734C101.735 4.02734 101.344 4.13743 101.01 4.3576C100.68 4.57422 100.424 4.85831 100.243 5.20987C100.066 5.55788 99.977 5.93608 99.977 6.34446V7.27663C99.977 7.82351 100.073 8.28871 100.265 8.67223C100.46 9.05575 100.732 9.34872 101.08 9.55114C101.428 9.75 101.834 9.84943 102.299 9.84943C102.601 9.84943 102.877 9.80682 103.125 9.72159C103.374 9.63281 103.589 9.50142 103.77 9.32741C103.951 9.15341 104.089 8.93857 104.185 8.68288L105.693 8.95455C105.572 9.39844 105.355 9.78729 105.043 10.1211C104.734 10.4513 104.345 10.7088 103.876 10.8935C103.411 11.0746 102.88 11.1651 102.283 11.1651ZM113.106 6.22195V7.60156H108.674V6.22195H113.106ZM109.122 2.81818V11H107.561V2.81818H109.122ZM114.219 2.81818V11H112.664V2.81818H114.219ZM116.35 11V2.81818H117.943V6.24858H118.71L121.41 2.81818H123.381L120.212 6.79723L123.419 11H121.442L118.976 7.7294H117.943V11H116.35ZM127.765 11.1651C126.973 11.1651 126.291 10.9858 125.72 10.6271C125.151 10.2649 124.715 9.76598 124.409 9.13033C124.104 8.49467 123.951 7.76669 123.951 6.94638C123.951 6.11541 124.107 5.3821 124.42 4.74645C124.732 4.10724 125.173 3.60831 125.741 3.24964C126.309 2.89098 126.979 2.71165 127.749 2.71165C128.371 2.71165 128.925 2.82706 129.411 3.05788C129.898 3.28516 130.29 3.60476 130.588 4.01669C130.89 4.42862 131.069 4.9098 131.126 5.46023H129.576C129.491 5.0767 129.296 4.74645 128.99 4.46946C128.688 4.19247 128.284 4.05398 127.776 4.05398C127.332 4.05398 126.943 4.17116 126.609 4.40554C126.279 4.63636 126.021 4.96662 125.837 5.39631C125.652 5.82244 125.56 6.3267 125.56 6.90909C125.56 7.50568 125.65 8.0206 125.831 8.45384C126.013 8.88707 126.268 9.22266 126.599 9.46058C126.932 9.69851 127.325 9.81747 127.776 9.81747C128.078 9.81747 128.351 9.76243 128.596 9.65234C128.845 9.53871 129.052 9.37713 129.219 9.16761C129.39 8.9581 129.509 8.70597 129.576 8.41122H131.126C131.069 8.94034 130.897 9.41264 130.61 9.82812C130.322 10.2436 129.937 10.5703 129.454 10.8082C128.974 11.0462 128.411 11.1651 127.765 11.1651ZM134.39 8.76811L137.996 2.81818H139.712V11H138.151V5.04474L134.561 11H132.829V2.81818H134.39V8.76811Z" fill="white"/>
</svg>
